<svg width="38" height="38" viewBox="0 0 38 38" fill="none" xmlns="http://www.w3.org/2000/svg">
<g clip-path="url(#clip0_211_364)">
<path d="M37.3053 33.9552L29.9505 26.5973C35.4537 19.2431 33.9532 8.82001 26.599 3.31678C19.2447 -2.18644 8.82165 -0.685892 3.31843 6.66833C-2.18479 14.0226 -0.684244 24.4456 6.66998 29.9489C12.5775 34.3695 20.6914 34.3695 26.599 29.9489L33.9569 37.3068C34.8815 38.2314 36.3807 38.2314 37.3053 37.3068C38.2299 36.3821 38.2299 34.883 37.3053 33.9584L37.3053 33.9552ZM16.6958 28.5287C10.1597 28.5287 4.86122 23.2302 4.86122 16.6941C4.86122 10.1581 10.1597 4.85957 16.6958 4.85957C23.2319 4.85957 28.5304 10.1581 28.5304 16.6941C28.5234 23.2273 23.229 28.5218 16.6958 28.5287Z" fill="#312E81"/>
</g>
<defs>
<clipPath id="clip0_211_364">
<rect width="38" height="38" fill="white"/>
</clipPath>
</defs>
</svg>
