<svg width="26" height="26" viewBox="0 0 26 26" fill="none" xmlns="http://www.w3.org/2000/svg">
<path d="M24.7806 23.7382L18.2055 17.1653C19.8619 15.1374 20.6756 12.5509 20.4785 9.9403C20.2814 7.3297 19.0885 4.89458 17.1464 3.13822C15.2043 1.38186 12.6614 0.438496 10.0433 0.503113C7.42523 0.567731 4.93203 1.63538 3.079 3.48541C1.22598 5.33544 0.154766 7.82644 0.0867602 10.4436C0.0187541 13.0607 0.959152 15.604 2.7136 17.5477C4.46805 19.4914 6.90243 20.687 9.51364 20.8874C12.1249 21.0878 14.7133 20.2777 16.744 18.6245L23.3191 25.1974C23.5129 25.3912 23.7757 25.5 24.0498 25.5C24.3239 25.5 24.5868 25.3912 24.7806 25.1974C24.9744 25.0037 25.0833 24.7409 25.0833 24.4669C25.0833 24.1929 24.9744 23.9301 24.7806 23.7363V23.7382ZM2.19799 10.7332C2.19836 9.12912 2.67453 7.56113 3.5663 6.22754C4.45807 4.89394 5.72538 3.85463 7.20799 3.24102C8.6906 2.62741 10.3219 2.46705 11.8957 2.78023C13.4695 3.0934 14.915 3.86605 16.0495 5.00046C17.1841 6.13488 17.9566 7.58011 18.2696 9.15344C18.5825 10.7268 18.4217 12.3575 17.8075 13.8395C17.1934 15.3215 16.1534 16.5881 14.8192 17.4793C13.4849 18.3704 11.9163 18.8461 10.3117 18.8461C8.16006 18.8441 6.09719 17.9887 4.57596 16.4676C3.05473 14.9465 2.19948 12.8841 2.19799 10.7332Z" fill="#86868B"/>
</svg>
